<svg width="36" height="36" viewBox="0 0 36 36" fill="none" xmlns="http://www.w3.org/2000/svg">
<path d="M14.3346 25.478C13.8991 25.9045 13.8991 26.5988 14.3346 27.0252L15.0039 27.6805C15.2144 27.8866 15.4946 28 15.7939 28C16.0933 28 16.3739 27.8866 16.584 27.6805L25.6741 18.7805C25.8854 18.574 26.0008 18.2984 26 18.0037C26.0008 17.7102 25.8854 17.4346 25.6741 17.228L16.5757 8.31951C16.3656 8.11341 16.085 8 15.786 8C15.4867 8 15.2061 8.11341 14.996 8.31951L14.3263 8.9748C14.1158 9.18089 14 9.45528 14 9.74878C14 10.0419 14.1158 10.3167 14.3263 10.522L21.9675 18.0041L14.3346 25.478Z" fill="#00284F" fill-opacity="0.5"/>
<path d="M14.3346 25.478C13.8991 25.9045 13.8991 26.5988 14.3346 27.0252L15.0039 27.6805C15.2144 27.8866 15.4946 28 15.7939 28C16.0933 28 16.3739 27.8866 16.584 27.6805L25.6741 18.7805C25.8854 18.574 26.0008 18.2984 26 18.0037C26.0008 17.7102 25.8854 17.4346 25.6741 17.228L16.5757 8.31951C16.3656 8.11341 16.085 8 15.786 8C15.4867 8 15.2061 8.11341 14.996 8.31951L14.3263 8.9748C14.1158 9.18089 14 9.45528 14 9.74878C14 10.0419 14.1158 10.3167 14.3263 10.522L21.9675 18.0041L14.3346 25.478Z" stroke="#00284F"/>
</svg>
